<svg xmlns="http://www.w3.org/2000/svg" viewBox="0 0 1780 1110" font-family="Inter, Pretendard, 'Apple SD Gothic Neo', 'Malgun Gothic', sans-serif">
<rect x="0" y="0" width="1780" height="1110" fill="#ffffff"/>
<text x="40" y="50" font-size="26" font-weight="700" fill="#0f172a">EatCare 시스템 ERD — IE(까마귀발) 표기법</text>
<text x="40" y="71" font-size="13" fill="#64748b">crow’s-foot 표기 · 실선=강한(식별) 관계 · 점선=약한(비식별) 관계</text>
<path d="M 1080.0 762.0 L 1080.0 792.0 L 270.0 792.0 L 270.0 830.0" fill="none" stroke="#475569" stroke-width="1.7"/>
<path d="M 200.0 632.0 L 200.0 792.0 L 190.0 792.0 L 190.0 830.0" fill="none" stroke="#475569" stroke-width="1.7"/>
<path d="M 400.0 186.0 L 450.0 186.0 L 450.0 173.0 L 500.0 173.0" fill="none" stroke="#475569" stroke-width="1.7"/>
<path d="M 640.0 480.0 L 640.0 380.0 L 640.0 380.0 L 640.0 236.0" fill="none" stroke="#475569" stroke-width="1.7"/>
<path d="M 940.0 906.0 L 890.0 906.0 L 890.0 893.0 L 840.0 893.0" fill="none" stroke="#475569" stroke-width="1.7"/>
<path d="M 700.0 606.0 L 700.0 802.0 L 700.0 802.0 L 700.0 830.0" fill="none" stroke="#475569" stroke-width="1.7"/>
<path d="M 500.0 543.0 L 450.0 543.0 L 450.0 556.0 L 400.0 556.0" fill="none" stroke="#94a3b8" stroke-width="1.5" stroke-dasharray="7 4"/>
<path d="M 1110.0 480.0 L 1110.0 400.0 L 1110.0 400.0 L 1110.0 288.0" fill="none" stroke="#94a3b8" stroke-width="1.5" stroke-dasharray="7 4"/>
<path d="M 230.0 110.0 L 230.0 90.0 L 1110.0 90.0 L 1110.0 110.0" fill="none" stroke="#94a3b8" stroke-width="1.5" stroke-dasharray="7 4"/>
<path d="M 1150.0 762.0 L 1150.0 792.0 L 1110.0 792.0 L 1110.0 830.0" fill="none" stroke="#94a3b8" stroke-width="1.5" stroke-dasharray="7 4"/>
<path d="M 1280.0 906.0 L 1330.0 906.0 L 1330.0 932.0 L 1380.0 932.0" fill="none" stroke="#94a3b8" stroke-width="1.5" stroke-dasharray="7 4"/>
<line x1="1072.0" y1="770.0" x2="1088.0" y2="770.0" stroke="#475569" stroke-width="1.6"/><line x1="1072.0" y1="777.0" x2="1088.0" y2="777.0" stroke="#475569" stroke-width="1.6"/>
<line x1="270.0" y1="814.0" x2="262.0" y2="830.0" stroke="#475569" stroke-width="1.6"/><line x1="270.0" y1="814.0" x2="270.0" y2="830.0" stroke="#475569" stroke-width="1.6"/><line x1="270.0" y1="814.0" x2="278.0" y2="830.0" stroke="#475569" stroke-width="1.6"/><circle cx="270.0" cy="806.0" r="4.2" fill="#ffffff" stroke="#475569" stroke-width="1.6"/>
<line x1="192.0" y1="640.0" x2="208.0" y2="640.0" stroke="#475569" stroke-width="1.6"/><line x1="192.0" y1="647.0" x2="208.0" y2="647.0" stroke="#475569" stroke-width="1.6"/>
<line x1="190.0" y1="814.0" x2="182.0" y2="830.0" stroke="#475569" stroke-width="1.6"/><line x1="190.0" y1="814.0" x2="190.0" y2="830.0" stroke="#475569" stroke-width="1.6"/><line x1="190.0" y1="814.0" x2="198.0" y2="830.0" stroke="#475569" stroke-width="1.6"/><circle cx="190.0" cy="806.0" r="4.2" fill="#ffffff" stroke="#475569" stroke-width="1.6"/>
<line x1="408.0" y1="178.0" x2="408.0" y2="194.0" stroke="#475569" stroke-width="1.6"/><line x1="415.0" y1="178.0" x2="415.0" y2="194.0" stroke="#475569" stroke-width="1.6"/>
<line x1="484.0" y1="173.0" x2="500.0" y2="165.0" stroke="#475569" stroke-width="1.6"/><line x1="484.0" y1="173.0" x2="500.0" y2="173.0" stroke="#475569" stroke-width="1.6"/><line x1="484.0" y1="173.0" x2="500.0" y2="181.0" stroke="#475569" stroke-width="1.6"/><circle cx="476.0" cy="173.0" r="4.2" fill="#ffffff" stroke="#475569" stroke-width="1.6"/>
<line x1="632.0" y1="472.0" x2="648.0" y2="472.0" stroke="#475569" stroke-width="1.6"/><line x1="632.0" y1="465.0" x2="648.0" y2="465.0" stroke="#475569" stroke-width="1.6"/>
<line x1="640.0" y1="252.0" x2="632.0" y2="236.0" stroke="#475569" stroke-width="1.6"/><line x1="640.0" y1="252.0" x2="640.0" y2="236.0" stroke="#475569" stroke-width="1.6"/><line x1="640.0" y1="252.0" x2="648.0" y2="236.0" stroke="#475569" stroke-width="1.6"/><circle cx="640.0" cy="260.0" r="4.2" fill="#ffffff" stroke="#475569" stroke-width="1.6"/>
<line x1="932.0" y1="898.0" x2="932.0" y2="914.0" stroke="#475569" stroke-width="1.6"/><line x1="925.0" y1="898.0" x2="925.0" y2="914.0" stroke="#475569" stroke-width="1.6"/>
<line x1="856.0" y1="893.0" x2="840.0" y2="885.0" stroke="#475569" stroke-width="1.6"/><line x1="856.0" y1="893.0" x2="840.0" y2="893.0" stroke="#475569" stroke-width="1.6"/><line x1="856.0" y1="893.0" x2="840.0" y2="901.0" stroke="#475569" stroke-width="1.6"/><circle cx="864.0" cy="893.0" r="4.2" fill="#ffffff" stroke="#475569" stroke-width="1.6"/>
<line x1="692.0" y1="614.0" x2="708.0" y2="614.0" stroke="#475569" stroke-width="1.6"/><line x1="692.0" y1="621.0" x2="708.0" y2="621.0" stroke="#475569" stroke-width="1.6"/>
<line x1="700.0" y1="814.0" x2="692.0" y2="830.0" stroke="#475569" stroke-width="1.6"/><line x1="700.0" y1="814.0" x2="700.0" y2="830.0" stroke="#475569" stroke-width="1.6"/><line x1="700.0" y1="814.0" x2="708.0" y2="830.0" stroke="#475569" stroke-width="1.6"/><circle cx="700.0" cy="806.0" r="4.2" fill="#ffffff" stroke="#475569" stroke-width="1.6"/>
<line x1="492.0" y1="535.0" x2="492.0" y2="551.0" stroke="#475569" stroke-width="1.6"/><line x1="485.0" y1="535.0" x2="485.0" y2="551.0" stroke="#475569" stroke-width="1.6"/>
<line x1="416.0" y1="556.0" x2="400.0" y2="548.0" stroke="#475569" stroke-width="1.6"/><line x1="416.0" y1="556.0" x2="400.0" y2="556.0" stroke="#475569" stroke-width="1.6"/><line x1="416.0" y1="556.0" x2="400.0" y2="564.0" stroke="#475569" stroke-width="1.6"/><circle cx="424.0" cy="556.0" r="4.2" fill="#ffffff" stroke="#475569" stroke-width="1.6"/>
<line x1="1102.0" y1="472.0" x2="1118.0" y2="472.0" stroke="#475569" stroke-width="1.6"/><line x1="1102.0" y1="465.0" x2="1118.0" y2="465.0" stroke="#475569" stroke-width="1.6"/>
<line x1="1110.0" y1="304.0" x2="1102.0" y2="288.0" stroke="#475569" stroke-width="1.6"/><line x1="1110.0" y1="304.0" x2="1110.0" y2="288.0" stroke="#475569" stroke-width="1.6"/><line x1="1110.0" y1="304.0" x2="1118.0" y2="288.0" stroke="#475569" stroke-width="1.6"/><circle cx="1110.0" cy="312.0" r="4.2" fill="#ffffff" stroke="#475569" stroke-width="1.6"/>
<line x1="222.0" y1="102.0" x2="238.0" y2="102.0" stroke="#475569" stroke-width="1.6"/><line x1="222.0" y1="95.0" x2="238.0" y2="95.0" stroke="#475569" stroke-width="1.6"/>
<line x1="1110.0" y1="94.0" x2="1102.0" y2="110.0" stroke="#475569" stroke-width="1.6"/><line x1="1110.0" y1="94.0" x2="1110.0" y2="110.0" stroke="#475569" stroke-width="1.6"/><line x1="1110.0" y1="94.0" x2="1118.0" y2="110.0" stroke="#475569" stroke-width="1.6"/><circle cx="1110.0" cy="86.0" r="4.2" fill="#ffffff" stroke="#475569" stroke-width="1.6"/>
<line x1="1142.0" y1="770.0" x2="1158.0" y2="770.0" stroke="#475569" stroke-width="1.6"/><line x1="1142.0" y1="777.0" x2="1158.0" y2="777.0" stroke="#475569" stroke-width="1.6"/>
<line x1="1110.0" y1="814.0" x2="1102.0" y2="830.0" stroke="#475569" stroke-width="1.6"/><line x1="1110.0" y1="814.0" x2="1110.0" y2="830.0" stroke="#475569" stroke-width="1.6"/><line x1="1110.0" y1="814.0" x2="1118.0" y2="830.0" stroke="#475569" stroke-width="1.6"/><circle cx="1110.0" cy="806.0" r="4.2" fill="#ffffff" stroke="#475569" stroke-width="1.6"/>
<line x1="1288.0" y1="898.0" x2="1288.0" y2="914.0" stroke="#475569" stroke-width="1.6"/><line x1="1295.0" y1="898.0" x2="1295.0" y2="914.0" stroke="#475569" stroke-width="1.6"/>
<line x1="1364.0" y1="932.0" x2="1380.0" y2="924.0" stroke="#475569" stroke-width="1.6"/><line x1="1364.0" y1="932.0" x2="1380.0" y2="932.0" stroke="#475569" stroke-width="1.6"/><line x1="1364.0" y1="932.0" x2="1380.0" y2="940.0" stroke="#475569" stroke-width="1.6"/><circle cx="1356.0" cy="932.0" r="4.2" fill="#ffffff" stroke="#475569" stroke-width="1.6"/>
<rect x="414.5" y="769.0" width="51" height="18" rx="4" fill="#ffffff"/>
<text x="440.0" y="783.0" font-size="12" fill="#475569" text-anchor="middle">가진다</text>
<rect x="214.0" y="714.0" width="64" height="18" rx="4" fill="#ffffff"/>
<text x="220.0" y="728.0" font-size="12" fill="#475569" text-anchor="start">해당된다</text>
<rect x="418.0" y="139.0" width="64" height="18" rx="4" fill="#ffffff"/>
<text x="450.0" y="153.0" font-size="12" fill="#475569" text-anchor="middle">구성된다</text>
<rect x="654.0" y="337.0" width="64" height="18" rx="4" fill="#ffffff"/>
<text x="660.0" y="351.0" font-size="12" fill="#475569" text-anchor="start">포함된다</text>
<rect x="858.0" y="859.0" width="64" height="18" rx="4" fill="#ffffff"/>
<text x="890.0" y="873.0" font-size="12" fill="#475569" text-anchor="middle">구성된다</text>
<rect x="710.0" y="679.0" width="64" height="18" rx="4" fill="#ffffff"/>
<text x="716.0" y="693.0" font-size="12" fill="#475569" text-anchor="start">집계된다</text>
<rect x="411.5" y="501.0" width="77" height="18" rx="4" fill="#ffffff"/>
<text x="450.0" y="515.0" font-size="12" fill="#475569" text-anchor="middle">기준이된다</text>
<rect x="1120.0" y="349.0" width="64" height="18" rx="4" fill="#ffffff"/>
<text x="1126.0" y="363.0" font-size="12" fill="#475569" text-anchor="start">기록한다</text>
<rect x="628.0" y="67.0" width="64" height="18" rx="4" fill="#ffffff"/>
<text x="660.0" y="81.0" font-size="12" fill="#475569" text-anchor="middle">포함된다</text>
<rect x="1156.0" y="777.0" width="64" height="18" rx="4" fill="#ffffff"/>
<text x="1162.0" y="791.0" font-size="12" fill="#475569" text-anchor="start">요약된다</text>
<rect x="1291.5" y="861.0" width="77" height="18" rx="4" fill="#ffffff"/>
<text x="1330.0" y="875.0" font-size="12" fill="#475569" text-anchor="middle">발생시킨다</text>
<rect x="940" y="480" width="340" height="282" rx="9" fill="#ffffff" stroke="#334155" stroke-width="1.6"/>
<path d="M940 489 a9 9 0 0 1 9 -9 h322 a9 9 0 0 1 9 9 v31 h-340 z" fill="#dbe4f0"/>
<line x1="940" y1="520" x2="1280" y2="520" stroke="#334155" stroke-width="1.4"/>
<rect x="940" y="480" width="5" height="40" fill="#3b5b8c"/>
<text x="958" y="506" font-size="15" font-weight="700" fill="#0f172a">MEMBER  ·  회원</text>
<text x="954" y="537" font-size="11.5" fill="#94a3b8">int</text>
<text x="1032" y="537" font-size="13" font-weight="700" fill="#0f172a">회원코드</text>
<rect x="1092" y="524.5" width="22" height="16" rx="4" fill="#fbf0cf"/>
<text x="1103.0" y="536" font-size="10" font-weight="700" fill="#8a6d1f" text-anchor="middle">PK</text>
<line x1="941" y1="546" x2="1279" y2="546" stroke="#eef2f7" stroke-width="1"/>
<rect x="941" y="546" width="338" height="26" fill="#f8fafc"/>
<text x="954" y="563" font-size="11.5" fill="#94a3b8">varchar</text>
<text x="1032" y="563" font-size="13" font-weight="500" fill="#0f172a">이름</text>
<line x1="941" y1="572" x2="1279" y2="572" stroke="#eef2f7" stroke-width="1"/>
<text x="954" y="589" font-size="11.5" fill="#94a3b8">int</text>
<text x="1032" y="589" font-size="13" font-weight="500" fill="#0f172a">출생년도</text>
<line x1="941" y1="598" x2="1279" y2="598" stroke="#eef2f7" stroke-width="1"/>
<rect x="941" y="598" width="338" height="26" fill="#f8fafc"/>
<text x="954" y="615" font-size="11.5" fill="#94a3b8">enum</text>
<text x="1032" y="615" font-size="13" font-weight="500" fill="#0f172a">성별</text>
<line x1="941" y1="624" x2="1279" y2="624" stroke="#eef2f7" stroke-width="1"/>
<text x="954" y="641" font-size="11.5" fill="#94a3b8">varchar</text>
<text x="1032" y="641" font-size="13" font-weight="500" fill="#0f172a">이메일</text>
<rect x="1079" y="628.5" width="22" height="16" rx="4" fill="#ccfbf1"/>
<text x="1090.0" y="640" font-size="10" font-weight="700" fill="#0f766e" text-anchor="middle">UK</text>
<line x1="941" y1="650" x2="1279" y2="650" stroke="#eef2f7" stroke-width="1"/>
<rect x="941" y="650" width="338" height="26" fill="#f8fafc"/>
<text x="954" y="667" font-size="11.5" fill="#94a3b8">varchar</text>
<text x="1032" y="667" font-size="13" font-weight="500" fill="#0f172a">비밀번호</text>
<line x1="941" y1="676" x2="1279" y2="676" stroke="#eef2f7" stroke-width="1"/>
<text x="954" y="693" font-size="11.5" fill="#94a3b8">date</text>
<text x="1032" y="693" font-size="13" font-weight="500" fill="#0f172a">가입일</text>
<line x1="941" y1="702" x2="1279" y2="702" stroke="#eef2f7" stroke-width="1"/>
<rect x="941" y="702" width="338" height="26" fill="#f8fafc"/>
<text x="954" y="719" font-size="11.5" fill="#94a3b8">enum</text>
<text x="1032" y="719" font-size="13" font-weight="500" fill="#0f172a">역할</text>
<line x1="941" y1="728" x2="1279" y2="728" stroke="#eef2f7" stroke-width="1"/>
<text x="954" y="745" font-size="11.5" fill="#94a3b8">enum</text>
<text x="1032" y="745" font-size="13" font-weight="500" fill="#0f172a">계정상태</text>
<line x1="941" y1="754" x2="1279" y2="754" stroke="#eef2f7" stroke-width="1"/>
<line x1="940" y1="546" x2="1280" y2="546" stroke="#cbd5e1" stroke-width="1.4"/>
<rect x="500" y="480" width="340" height="126" rx="9" fill="#ffffff" stroke="#334155" stroke-width="1.6"/>
<path d="M500 489 a9 9 0 0 1 9 -9 h322 a9 9 0 0 1 9 9 v31 h-340 z" fill="#dbe4f0"/>
<line x1="500" y1="520" x2="840" y2="520" stroke="#334155" stroke-width="1.4"/>
<rect x="500" y="480" width="5" height="40" fill="#3b5b8c"/>
<text x="518" y="506" font-size="15" font-weight="700" fill="#0f172a">NUTRIENT  ·  영양소</text>
<text x="514" y="537" font-size="11.5" fill="#94a3b8">int</text>
<text x="592" y="537" font-size="13" font-weight="700" fill="#0f172a">영양소코드</text>
<rect x="665" y="524.5" width="22" height="16" rx="4" fill="#fbf0cf"/>
<text x="676.0" y="536" font-size="10" font-weight="700" fill="#8a6d1f" text-anchor="middle">PK</text>
<line x1="501" y1="546" x2="839" y2="546" stroke="#eef2f7" stroke-width="1"/>
<rect x="501" y="546" width="338" height="26" fill="#f8fafc"/>
<text x="514" y="563" font-size="11.5" fill="#94a3b8">varchar</text>
<text x="592" y="563" font-size="13" font-weight="500" fill="#0f172a">영양소명</text>
<line x1="501" y1="572" x2="839" y2="572" stroke="#eef2f7" stroke-width="1"/>
<text x="514" y="589" font-size="11.5" fill="#94a3b8">varchar</text>
<text x="592" y="589" font-size="13" font-weight="500" fill="#0f172a">단위</text>
<line x1="501" y1="598" x2="839" y2="598" stroke="#eef2f7" stroke-width="1"/>
<line x1="500" y1="546" x2="840" y2="546" stroke="#cbd5e1" stroke-width="1.4"/>
<rect x="60" y="480" width="340" height="152" rx="9" fill="#ffffff" stroke="#334155" stroke-width="1.6"/>
<path d="M60 489 a9 9 0 0 1 9 -9 h322 a9 9 0 0 1 9 9 v31 h-340 z" fill="#dbe4f0"/>
<line x1="60" y1="520" x2="400" y2="520" stroke="#334155" stroke-width="1.4"/>
<rect x="60" y="480" width="5" height="40" fill="#3b5b8c"/>
<text x="78" y="506" font-size="15" font-weight="700" fill="#0f172a">DISEASE  ·  질환</text>
<text x="74" y="537" font-size="11.5" fill="#94a3b8">int</text>
<text x="152" y="537" font-size="13" font-weight="700" fill="#0f172a">질환코드</text>
<rect x="212" y="524.5" width="22" height="16" rx="4" fill="#fbf0cf"/>
<text x="223.0" y="536" font-size="10" font-weight="700" fill="#8a6d1f" text-anchor="middle">PK</text>
<line x1="61" y1="546" x2="399" y2="546" stroke="#eef2f7" stroke-width="1"/>
<rect x="61" y="546" width="338" height="26" fill="#f8fafc"/>
<text x="74" y="563" font-size="11.5" fill="#94a3b8">varchar</text>
<text x="152" y="563" font-size="13" font-weight="500" fill="#0f172a">질환명</text>
<line x1="61" y1="572" x2="399" y2="572" stroke="#eef2f7" stroke-width="1"/>
<text x="74" y="589" font-size="11.5" fill="#94a3b8">int</text>
<text x="152" y="589" font-size="13" font-weight="500" fill="#0f172a">영양소코드</text>
<rect x="225" y="576.5" width="22" height="16" rx="4" fill="#dbeafe"/>
<text x="236.0" y="588" font-size="10" font-weight="700" fill="#1d4ed8" text-anchor="middle">FK</text>
<line x1="61" y1="598" x2="399" y2="598" stroke="#eef2f7" stroke-width="1"/>
<rect x="61" y="598" width="338" height="26" fill="#f8fafc"/>
<text x="74" y="615" font-size="11.5" fill="#94a3b8">float</text>
<text x="152" y="615" font-size="13" font-weight="500" fill="#0f172a">일일상한값</text>
<line x1="61" y1="624" x2="399" y2="624" stroke="#eef2f7" stroke-width="1"/>
<line x1="60" y1="546" x2="400" y2="546" stroke="#cbd5e1" stroke-width="1.4"/>
<rect x="60" y="830" width="340" height="126" rx="9" fill="#ffffff" stroke="#334155" stroke-width="1.6"/>
<path d="M60 839 a9 9 0 0 1 9 -9 h322 a9 9 0 0 1 9 9 v31 h-340 z" fill="#e1ebe2"/>
<line x1="60" y1="870" x2="400" y2="870" stroke="#334155" stroke-width="1.4"/>
<rect x="60" y="830" width="5" height="40" fill="#3f7a4f"/>
<text x="78" y="856" font-size="15" font-weight="700" fill="#0f172a">MEMBER_DISEASE</text>
<text x="74" y="887" font-size="11.5" fill="#94a3b8">int</text>
<text x="152" y="887" font-size="13" font-weight="700" fill="#0f172a">회원코드</text>
<rect x="212" y="874.5" width="22" height="16" rx="4" fill="#fbf0cf"/>
<text x="223.0" y="886" font-size="10" font-weight="700" fill="#8a6d1f" text-anchor="middle">PK</text>
<rect x="238" y="874.5" width="22" height="16" rx="4" fill="#dbeafe"/>
<text x="249.0" y="886" font-size="10" font-weight="700" fill="#1d4ed8" text-anchor="middle">FK</text>
<line x1="61" y1="896" x2="399" y2="896" stroke="#eef2f7" stroke-width="1"/>
<rect x="61" y="896" width="338" height="26" fill="#f8fafc"/>
<text x="74" y="913" font-size="11.5" fill="#94a3b8">int</text>
<text x="152" y="913" font-size="13" font-weight="700" fill="#0f172a">질환코드</text>
<rect x="212" y="900.5" width="22" height="16" rx="4" fill="#fbf0cf"/>
<text x="223.0" y="912" font-size="10" font-weight="700" fill="#8a6d1f" text-anchor="middle">PK</text>
<rect x="238" y="900.5" width="22" height="16" rx="4" fill="#dbeafe"/>
<text x="249.0" y="912" font-size="10" font-weight="700" fill="#1d4ed8" text-anchor="middle">FK</text>
<line x1="61" y1="922" x2="399" y2="922" stroke="#eef2f7" stroke-width="1"/>
<text x="74" y="939" font-size="11.5" fill="#94a3b8">date</text>
<text x="152" y="939" font-size="13" font-weight="500" fill="#0f172a">등록일</text>
<line x1="61" y1="948" x2="399" y2="948" stroke="#eef2f7" stroke-width="1"/>
<line x1="60" y1="922" x2="400" y2="922" stroke="#cbd5e1" stroke-width="1.4"/>
<rect x="60" y="110" width="340" height="204" rx="9" fill="#ffffff" stroke="#334155" stroke-width="1.6"/>
<path d="M60 119 a9 9 0 0 1 9 -9 h322 a9 9 0 0 1 9 9 v31 h-340 z" fill="#dbe4f0"/>
<line x1="60" y1="150" x2="400" y2="150" stroke="#334155" stroke-width="1.4"/>
<rect x="60" y="110" width="5" height="40" fill="#3b5b8c"/>
<text x="78" y="136" font-size="15" font-weight="700" fill="#0f172a">FOOD  ·  식품</text>
<text x="74" y="167" font-size="11.5" fill="#94a3b8">varchar</text>
<text x="152" y="167" font-size="13" font-weight="700" fill="#0f172a">식품코드</text>
<rect x="212" y="154.5" width="22" height="16" rx="4" fill="#fbf0cf"/>
<text x="223.0" y="166" font-size="10" font-weight="700" fill="#8a6d1f" text-anchor="middle">PK</text>
<line x1="61" y1="176" x2="399" y2="176" stroke="#eef2f7" stroke-width="1"/>
<rect x="61" y="176" width="338" height="26" fill="#f8fafc"/>
<text x="74" y="193" font-size="11.5" fill="#94a3b8">varchar</text>
<text x="152" y="193" font-size="13" font-weight="500" fill="#0f172a">식품명</text>
<line x1="61" y1="202" x2="399" y2="202" stroke="#eef2f7" stroke-width="1"/>
<text x="74" y="219" font-size="11.5" fill="#94a3b8">float</text>
<text x="152" y="219" font-size="13" font-weight="500" fill="#0f172a">기준량</text>
<line x1="61" y1="228" x2="399" y2="228" stroke="#eef2f7" stroke-width="1"/>
<rect x="61" y="228" width="338" height="26" fill="#f8fafc"/>
<text x="74" y="245" font-size="11.5" fill="#94a3b8">varchar</text>
<text x="152" y="245" font-size="13" font-weight="500" fill="#0f172a">기준단위</text>
<line x1="61" y1="254" x2="399" y2="254" stroke="#eef2f7" stroke-width="1"/>
<text x="74" y="271" font-size="11.5" fill="#94a3b8">varchar</text>
<text x="152" y="271" font-size="13" font-weight="500" fill="#0f172a">대분류</text>
<line x1="61" y1="280" x2="399" y2="280" stroke="#eef2f7" stroke-width="1"/>
<rect x="61" y="280" width="338" height="26" fill="#f8fafc"/>
<text x="74" y="297" font-size="11.5" fill="#94a3b8">varchar</text>
<text x="152" y="297" font-size="13" font-weight="500" fill="#0f172a">검색명</text>
<line x1="61" y1="306" x2="399" y2="306" stroke="#eef2f7" stroke-width="1"/>
<line x1="60" y1="176" x2="400" y2="176" stroke="#cbd5e1" stroke-width="1.4"/>
<rect x="500" y="110" width="340" height="126" rx="9" fill="#ffffff" stroke="#334155" stroke-width="1.6"/>
<path d="M500 119 a9 9 0 0 1 9 -9 h322 a9 9 0 0 1 9 9 v31 h-340 z" fill="#e1ebe2"/>
<line x1="500" y1="150" x2="840" y2="150" stroke="#334155" stroke-width="1.4"/>
<rect x="500" y="110" width="5" height="40" fill="#3f7a4f"/>
<text x="518" y="136" font-size="15" font-weight="700" fill="#0f172a">FOOD_NUTRIENT</text>
<text x="514" y="167" font-size="11.5" fill="#94a3b8">varchar</text>
<text x="592" y="167" font-size="13" font-weight="700" fill="#0f172a">식품코드</text>
<rect x="652" y="154.5" width="22" height="16" rx="4" fill="#fbf0cf"/>
<text x="663.0" y="166" font-size="10" font-weight="700" fill="#8a6d1f" text-anchor="middle">PK</text>
<rect x="678" y="154.5" width="22" height="16" rx="4" fill="#dbeafe"/>
<text x="689.0" y="166" font-size="10" font-weight="700" fill="#1d4ed8" text-anchor="middle">FK</text>
<line x1="501" y1="176" x2="839" y2="176" stroke="#eef2f7" stroke-width="1"/>
<rect x="501" y="176" width="338" height="26" fill="#f8fafc"/>
<text x="514" y="193" font-size="11.5" fill="#94a3b8">int</text>
<text x="592" y="193" font-size="13" font-weight="700" fill="#0f172a">영양소코드</text>
<rect x="665" y="180.5" width="22" height="16" rx="4" fill="#fbf0cf"/>
<text x="676.0" y="192" font-size="10" font-weight="700" fill="#8a6d1f" text-anchor="middle">PK</text>
<rect x="691" y="180.5" width="22" height="16" rx="4" fill="#dbeafe"/>
<text x="702.0" y="192" font-size="10" font-weight="700" fill="#1d4ed8" text-anchor="middle">FK</text>
<line x1="501" y1="202" x2="839" y2="202" stroke="#eef2f7" stroke-width="1"/>
<text x="514" y="219" font-size="11.5" fill="#94a3b8">float</text>
<text x="592" y="219" font-size="13" font-weight="500" fill="#0f172a">함량</text>
<line x1="501" y1="228" x2="839" y2="228" stroke="#eef2f7" stroke-width="1"/>
<line x1="500" y1="202" x2="840" y2="202" stroke="#cbd5e1" stroke-width="1.4"/>
<rect x="940" y="110" width="340" height="178" rx="9" fill="#ffffff" stroke="#334155" stroke-width="1.6"/>
<path d="M940 119 a9 9 0 0 1 9 -9 h322 a9 9 0 0 1 9 9 v31 h-340 z" fill="#ece6df"/>
<line x1="940" y1="150" x2="1280" y2="150" stroke="#334155" stroke-width="1.4"/>
<rect x="940" y="110" width="5" height="40" fill="#9a7b4f"/>
<text x="958" y="136" font-size="15" font-weight="700" fill="#0f172a">DIET_RECORD  ·  식단기록</text>
<text x="954" y="167" font-size="11.5" fill="#94a3b8">int</text>
<text x="1032" y="167" font-size="13" font-weight="700" fill="#0f172a">기록코드</text>
<rect x="1092" y="154.5" width="22" height="16" rx="4" fill="#fbf0cf"/>
<text x="1103.0" y="166" font-size="10" font-weight="700" fill="#8a6d1f" text-anchor="middle">PK</text>
<line x1="941" y1="176" x2="1279" y2="176" stroke="#eef2f7" stroke-width="1"/>
<rect x="941" y="176" width="338" height="26" fill="#f8fafc"/>
<text x="954" y="193" font-size="11.5" fill="#94a3b8">int</text>
<text x="1032" y="193" font-size="13" font-weight="500" fill="#0f172a">회원코드</text>
<rect x="1092" y="180.5" width="22" height="16" rx="4" fill="#dbeafe"/>
<text x="1103.0" y="192" font-size="10" font-weight="700" fill="#1d4ed8" text-anchor="middle">FK</text>
<line x1="941" y1="202" x2="1279" y2="202" stroke="#eef2f7" stroke-width="1"/>
<text x="954" y="219" font-size="11.5" fill="#94a3b8">varchar</text>
<text x="1032" y="219" font-size="13" font-weight="500" fill="#0f172a">식품코드</text>
<rect x="1092" y="206.5" width="22" height="16" rx="4" fill="#dbeafe"/>
<text x="1103.0" y="218" font-size="10" font-weight="700" fill="#1d4ed8" text-anchor="middle">FK</text>
<line x1="941" y1="228" x2="1279" y2="228" stroke="#eef2f7" stroke-width="1"/>
<rect x="941" y="228" width="338" height="26" fill="#f8fafc"/>
<text x="954" y="245" font-size="11.5" fill="#94a3b8">float</text>
<text x="1032" y="245" font-size="13" font-weight="500" fill="#0f172a">섭취량</text>
<line x1="941" y1="254" x2="1279" y2="254" stroke="#eef2f7" stroke-width="1"/>
<text x="954" y="271" font-size="11.5" fill="#94a3b8">datetime</text>
<text x="1032" y="271" font-size="13" font-weight="500" fill="#0f172a">기록일시</text>
<line x1="941" y1="280" x2="1279" y2="280" stroke="#eef2f7" stroke-width="1"/>
<line x1="940" y1="176" x2="1280" y2="176" stroke="#cbd5e1" stroke-width="1.4"/>
<rect x="940" y="830" width="340" height="152" rx="9" fill="#ffffff" stroke="#334155" stroke-width="1.6"/>
<path d="M940 839 a9 9 0 0 1 9 -9 h322 a9 9 0 0 1 9 9 v31 h-340 z" fill="#ece6df"/>
<line x1="940" y1="870" x2="1280" y2="870" stroke="#334155" stroke-width="1.4"/>
<rect x="940" y="830" width="5" height="40" fill="#9a7b4f"/>
<text x="958" y="856" font-size="15" font-weight="700" fill="#0f172a">DAILY_SUMMARY  ·  일일요약</text>
<text x="954" y="887" font-size="11.5" fill="#94a3b8">int</text>
<text x="1032" y="887" font-size="13" font-weight="700" fill="#0f172a">요약코드</text>
<rect x="1092" y="874.5" width="22" height="16" rx="4" fill="#fbf0cf"/>
<text x="1103.0" y="886" font-size="10" font-weight="700" fill="#8a6d1f" text-anchor="middle">PK</text>
<line x1="941" y1="896" x2="1279" y2="896" stroke="#eef2f7" stroke-width="1"/>
<rect x="941" y="896" width="338" height="26" fill="#f8fafc"/>
<text x="954" y="913" font-size="11.5" fill="#94a3b8">int</text>
<text x="1032" y="913" font-size="13" font-weight="500" fill="#0f172a">회원코드</text>
<rect x="1092" y="900.5" width="22" height="16" rx="4" fill="#dbeafe"/>
<text x="1103.0" y="912" font-size="10" font-weight="700" fill="#1d4ed8" text-anchor="middle">FK</text>
<rect x="1118" y="900.5" width="22" height="16" rx="4" fill="#ccfbf1"/>
<text x="1129.0" y="912" font-size="10" font-weight="700" fill="#0f766e" text-anchor="middle">UK</text>
<line x1="941" y1="922" x2="1279" y2="922" stroke="#eef2f7" stroke-width="1"/>
<text x="954" y="939" font-size="11.5" fill="#94a3b8">date</text>
<text x="1032" y="939" font-size="13" font-weight="500" fill="#0f172a">날짜</text>
<rect x="1066" y="926.5" width="22" height="16" rx="4" fill="#ccfbf1"/>
<text x="1077.0" y="938" font-size="10" font-weight="700" fill="#0f766e" text-anchor="middle">UK</text>
<line x1="941" y1="948" x2="1279" y2="948" stroke="#eef2f7" stroke-width="1"/>
<rect x="941" y="948" width="338" height="26" fill="#f8fafc"/>
<text x="954" y="965" font-size="11.5" fill="#94a3b8">enum</text>
<text x="1032" y="965" font-size="13" font-weight="500" fill="#0f172a">위험도</text>
<line x1="941" y1="974" x2="1279" y2="974" stroke="#eef2f7" stroke-width="1"/>
<line x1="940" y1="896" x2="1280" y2="896" stroke="#cbd5e1" stroke-width="1.4"/>
<rect x="500" y="830" width="340" height="126" rx="9" fill="#ffffff" stroke="#334155" stroke-width="1.6"/>
<path d="M500 839 a9 9 0 0 1 9 -9 h322 a9 9 0 0 1 9 9 v31 h-340 z" fill="#e1ebe2"/>
<line x1="500" y1="870" x2="840" y2="870" stroke="#334155" stroke-width="1.4"/>
<rect x="500" y="830" width="5" height="40" fill="#3f7a4f"/>
<text x="518" y="856" font-size="15" font-weight="700" fill="#0f172a">SUMMARY_NUTRIENT</text>
<text x="514" y="887" font-size="11.5" fill="#94a3b8">int</text>
<text x="592" y="887" font-size="13" font-weight="700" fill="#0f172a">요약코드</text>
<rect x="652" y="874.5" width="22" height="16" rx="4" fill="#fbf0cf"/>
<text x="663.0" y="886" font-size="10" font-weight="700" fill="#8a6d1f" text-anchor="middle">PK</text>
<rect x="678" y="874.5" width="22" height="16" rx="4" fill="#dbeafe"/>
<text x="689.0" y="886" font-size="10" font-weight="700" fill="#1d4ed8" text-anchor="middle">FK</text>
<line x1="501" y1="896" x2="839" y2="896" stroke="#eef2f7" stroke-width="1"/>
<rect x="501" y="896" width="338" height="26" fill="#f8fafc"/>
<text x="514" y="913" font-size="11.5" fill="#94a3b8">int</text>
<text x="592" y="913" font-size="13" font-weight="700" fill="#0f172a">영양소코드</text>
<rect x="665" y="900.5" width="22" height="16" rx="4" fill="#fbf0cf"/>
<text x="676.0" y="912" font-size="10" font-weight="700" fill="#8a6d1f" text-anchor="middle">PK</text>
<rect x="691" y="900.5" width="22" height="16" rx="4" fill="#dbeafe"/>
<text x="702.0" y="912" font-size="10" font-weight="700" fill="#1d4ed8" text-anchor="middle">FK</text>
<line x1="501" y1="922" x2="839" y2="922" stroke="#eef2f7" stroke-width="1"/>
<text x="514" y="939" font-size="11.5" fill="#94a3b8">float</text>
<text x="592" y="939" font-size="13" font-weight="500" fill="#0f172a">누적량</text>
<line x1="501" y1="948" x2="839" y2="948" stroke="#eef2f7" stroke-width="1"/>
<line x1="500" y1="922" x2="840" y2="922" stroke="#cbd5e1" stroke-width="1.4"/>
<rect x="1380" y="830" width="340" height="204" rx="9" fill="#ffffff" stroke="#334155" stroke-width="1.6"/>
<path d="M1380 839 a9 9 0 0 1 9 -9 h322 a9 9 0 0 1 9 9 v31 h-340 z" fill="#ece6df"/>
<line x1="1380" y1="870" x2="1720" y2="870" stroke="#334155" stroke-width="1.4"/>
<rect x="1380" y="830" width="5" height="40" fill="#9a7b4f"/>
<text x="1398" y="856" font-size="15" font-weight="700" fill="#0f172a">NOTIFICATION  ·  알림</text>
<text x="1394" y="887" font-size="11.5" fill="#94a3b8">int</text>
<text x="1472" y="887" font-size="13" font-weight="700" fill="#0f172a">알림코드</text>
<rect x="1532" y="874.5" width="22" height="16" rx="4" fill="#fbf0cf"/>
<text x="1543.0" y="886" font-size="10" font-weight="700" fill="#8a6d1f" text-anchor="middle">PK</text>
<line x1="1381" y1="896" x2="1719" y2="896" stroke="#eef2f7" stroke-width="1"/>
<rect x="1381" y="896" width="338" height="26" fill="#f8fafc"/>
<text x="1394" y="913" font-size="11.5" fill="#94a3b8">int</text>
<text x="1472" y="913" font-size="13" font-weight="500" fill="#0f172a">요약코드</text>
<rect x="1532" y="900.5" width="22" height="16" rx="4" fill="#dbeafe"/>
<text x="1543.0" y="912" font-size="10" font-weight="700" fill="#1d4ed8" text-anchor="middle">FK</text>
<line x1="1381" y1="922" x2="1719" y2="922" stroke="#eef2f7" stroke-width="1"/>
<text x="1394" y="939" font-size="11.5" fill="#94a3b8">enum</text>
<text x="1472" y="939" font-size="13" font-weight="500" fill="#0f172a">알림유형</text>
<line x1="1381" y1="948" x2="1719" y2="948" stroke="#eef2f7" stroke-width="1"/>
<rect x="1381" y="948" width="338" height="26" fill="#f8fafc"/>
<text x="1394" y="965" font-size="11.5" fill="#94a3b8">varchar</text>
<text x="1472" y="965" font-size="13" font-weight="500" fill="#0f172a">알림내용</text>
<line x1="1381" y1="974" x2="1719" y2="974" stroke="#eef2f7" stroke-width="1"/>
<text x="1394" y="991" font-size="11.5" fill="#94a3b8">datetime</text>
<text x="1472" y="991" font-size="13" font-weight="500" fill="#0f172a">발송일시</text>
<line x1="1381" y1="1000" x2="1719" y2="1000" stroke="#eef2f7" stroke-width="1"/>
<rect x="1381" y="1000" width="338" height="26" fill="#f8fafc"/>
<text x="1394" y="1017" font-size="11.5" fill="#94a3b8">boolean</text>
<text x="1472" y="1017" font-size="13" font-weight="500" fill="#0f172a">읽음여부</text>
<line x1="1381" y1="1026" x2="1719" y2="1026" stroke="#eef2f7" stroke-width="1"/>
<line x1="1380" y1="896" x2="1720" y2="896" stroke="#cbd5e1" stroke-width="1.4"/>
<rect x="40" y="1038" width="640" height="52" rx="8" fill="#ffffff" stroke="#e2e8f0"/>
<line x1="58" y1="1056" x2="98" y2="1056" stroke="#475569" stroke-width="1.7"/>
<text x="106" y="1060" font-size="12" fill="#475569">강한 관계(식별)</text>
<line x1="58" y1="1076" x2="98" y2="1076" stroke="#94a3b8" stroke-width="1.5" stroke-dasharray="7 4"/>
<text x="106" y="1080" font-size="12" fill="#475569">약한 관계(비식별)</text>
<rect x="250" y="1048" width="24" height="16" rx="4" fill="#fbf0cf"/>
<text x="262" y="1060" font-size="10" font-weight="700" fill="#8a6d1f" text-anchor="middle">PK</text>
<text x="280" y="1060" font-size="11.5" fill="#475569">기본키</text>
<rect x="360" y="1048" width="24" height="16" rx="4" fill="#dbeafe"/>
<text x="372" y="1060" font-size="10" font-weight="700" fill="#1d4ed8" text-anchor="middle">FK</text>
<text x="390" y="1060" font-size="11.5" fill="#475569">외래키</text>
<rect x="470" y="1048" width="24" height="16" rx="4" fill="#ccfbf1"/>
<text x="482" y="1060" font-size="10" font-weight="700" fill="#0f766e" text-anchor="middle">UK</text>
<text x="500" y="1060" font-size="11.5" fill="#475569">고유키</text>
<text x="250" y="1082" font-size="11.5" fill="#475569">||— 1 (정확히 하나)   ○&lt;— 0..N (영 또는 다수)</text>
</svg>